<?xml version="1.0" encoding="UTF-8"?>
<svg width="216px" height="270px" viewBox="0 0 216 270" version="1.1" xmlns="http://www.w3.org/2000/svg" xmlns:xlink="http://www.w3.org/1999/xlink">
    <!-- Generator: Sketch 52.5 (67469) - http://www.bohemiancoding.com/sketch -->
    <title>Untitled</title>
    <desc>Created with Sketch.</desc>
    <defs>
        <polygon id="path-1" points="216 270 0 270 0 0 216 0"></polygon>
    </defs>
    <g id="Page-1" stroke="none" stroke-width="1" fill="none" fill-rule="evenodd">
        <g id="logo-d17919f3">
            <path d="M145.313,103.458 C132.889,103.458 122.813,113.53 122.813,125.949 C122.813,138.369 132.888,148.441 145.313,148.441 C157.737,148.441 167.813,138.369 167.813,125.949 C167.813,113.53 157.737,103.458 145.313,103.458" id="Path" fill="#FFFFFF"></path>
            <mask id="mask-2" fill="white">
                <use xlink:href="#path-1"></use>
            </mask>
            <g id="a"></g>
            <path d="M189,162.025 C189,164.83 188.855,167.597 188.577,170.328 C185.634,172.416 182.083,173.699 178.199,173.699 C176.738,173.699 175.338,173.472 173.975,173.145 C166.539273,170.764316 159.770671,166.661697 154.22,161.171 L135.113,180.278 C146.597,191.685 161.708,199.388 178.533,201.701 C164.623,226.318 138.244,243.001 108,243.001 L27,243.001 L27,133.216 C82.35,125.84 130.576,96.064 162.409,53.356 C169.434,58.228 175.32,63.853 179.437,69.879 C185.72495,81.5907793 189.010662,94.6789952 189,107.972 L189,162.025 Z M108,0 L0,0 L0,270 L108,270 C167.647,270 216,221.651 216,162.025 L216,107.972 C216,48.342 167.661,0 108,0 Z" id="Shape" fill="#FFFFFF" fill-rule="nonzero" mask="url(#mask-2)"></path>
        </g>
    </g>
</svg>